<svg xmlns="http://www.w3.org/2000/svg" width="64" height="64" viewBox="0 0 16 16">
<!-- Derek: Stranger Things boy pixel art - dark curly hair, 80s jacket -->
<rect x="4" y="0" width="8" height="1" fill="#1e1b4b"/>
<rect x="3" y="1" width="10" height="1" fill="#1e1b4b"/>
<rect x="5" y="1" width="1" height="1" fill="#312e81"/>
<rect x="8" y="1" width="1" height="1" fill="#312e81"/>
<rect x="11" y="1" width="1" height="1" fill="#312e81"/>
<rect x="2" y="2" width="12" height="1" fill="#1e1b4b"/>
<rect x="3" y="3" width="10" height="1" fill="#fcd9b6"/>
<rect x="3" y="4" width="10" height="1" fill="#fcd9b6"/>
<rect x="5" y="4" width="1" height="1" fill="#fff"/>
<rect x="6" y="4" width="1" height="1" fill="#312e81"/>
<rect x="9" y="4" width="1" height="1" fill="#fff"/>
<rect x="10" y="4" width="1" height="1" fill="#312e81"/>
<rect x="3" y="5" width="10" height="1" fill="#fcd9b6"/>
<rect x="7" y="6" width="2" height="1" fill="#1e1b4b"/>
<rect x="3" y="6" width="10" height="1" fill="#fcd9b6"/>
<rect x="4" y="7" width="8" height="1" fill="#fcd9b6"/>
<rect x="5" y="8" width="6" height="1" fill="#fcd9b6"/>
<rect x="3" y="9" width="10" height="1" fill="#dc2626"/>
<rect x="3" y="10" width="10" height="2" fill="#b91c1c"/>
<rect x="7" y="9" width="2" height="1" fill="#fbbf24"/>
<rect x="4" y="12" width="3" height="2" fill="#1e3a5f"/>
<rect x="9" y="12" width="3" height="2" fill="#1e3a5f"/>
</svg>
