<svg xmlns="http://www.w3.org/2000/svg" width="64" height="64" viewBox="0 0 16 16">
<!-- Iron: Iron ingot / metal chunk pixel art - heavy, shiny, magical -->
<rect x="4" y="2" width="8" height="1" fill="#a1a1aa"/>
<rect x="3" y="3" width="10" height="1" fill="#71717a"/>
<rect x="3" y="4" width="10" height="1" fill="#52525b"/>
<rect x="5" y="4" width="2" height="1" fill="#a1a1aa"/>
<rect x="9" y="4" width="1" height="1" fill="#a1a1aa"/>
<rect x="2" y="5" width="12" height="1" fill="#52525b"/>
<rect x="4" y="5" width="3" height="1" fill="#d4d4d8"/>
<rect x="2" y="6" width="12" height="1" fill="#3f3f46"/>
<rect x="2" y="7" width="12" height="1" fill="#3f3f46"/>
<rect x="5" y="7" width="2" height="1" fill="#71717a"/>
<rect x="2" y="8" width="12" height="1" fill="#52525b"/>
<rect x="3" y="9" width="10" height="1" fill="#52525b"/>
<rect x="8" y="9" width="2" height="1" fill="#a1a1aa"/>
<rect x="3" y="10" width="10" height="1" fill="#71717a"/>
<rect x="4" y="11" width="8" height="1" fill="#71717a"/>
<rect x="5" y="12" width="6" height="1" fill="#a1a1aa"/>
<!-- Sparkle effects (magic) -->
<rect x="1" y="3" width="1" height="1" fill="#d946ef"/>
<rect x="14" y="2" width="1" height="1" fill="#c084fc"/>
<rect x="0" y="7" width="1" height="1" fill="#c084fc"/>
<rect x="15" y="8" width="1" height="1" fill="#d946ef"/>
<rect x="7" y="0" width="1" height="1" fill="#e9d5ff"/>
<rect x="8" y="1" width="1" height="1" fill="#c084fc"/>
<rect x="7" y="13" width="1" height="1" fill="#e9d5ff"/>
</svg>
