<svg xmlns="http://www.w3.org/2000/svg" width="64" height="64" viewBox="0 0 16 16">
<!-- Klay: Muichiro Tokito pixel art - long teal/mint hair -->
<rect x="4" y="0" width="8" height="1" fill="#5eead4"/>
<rect x="3" y="1" width="10" height="1" fill="#2dd4bf"/>
<rect x="2" y="2" width="12" height="1" fill="#2dd4bf"/>
<rect x="1" y="3" width="2" height="5" fill="#5eead4"/>
<rect x="13" y="3" width="2" height="5" fill="#5eead4"/>
<rect x="3" y="3" width="10" height="1" fill="#fcd9b6"/>
<rect x="3" y="4" width="10" height="1" fill="#fcd9b6"/>
<rect x="5" y="4" width="1" height="1" fill="#fff"/>
<rect x="6" y="4" width="1" height="1" fill="#0d9488"/>
<rect x="9" y="4" width="1" height="1" fill="#fff"/>
<rect x="10" y="4" width="1" height="1" fill="#0d9488"/>
<rect x="3" y="5" width="10" height="1" fill="#fcd9b6"/>
<rect x="3" y="6" width="10" height="1" fill="#fcd9b6"/>
<rect x="7" y="6" width="2" height="1" fill="#0f172a"/>
<rect x="4" y="7" width="8" height="1" fill="#fcd9b6"/>
<rect x="5" y="8" width="6" height="1" fill="#fcd9b6"/>
<rect x="3" y="9" width="10" height="1" fill="#0d9488"/>
<rect x="3" y="10" width="10" height="2" fill="#115e59"/>
<rect x="5" y="10" width="1" height="2" fill="#0d9488"/>
<rect x="10" y="10" width="1" height="2" fill="#0d9488"/>
<rect x="4" y="12" width="3" height="2" fill="#fcd9b6"/>
<rect x="9" y="12" width="3" height="2" fill="#fcd9b6"/>
<rect x="1" y="8" width="2" height="3" fill="#2dd4bf"/>
<rect x="13" y="8" width="2" height="3" fill="#2dd4bf"/>
</svg>
