<svg xmlns="http://www.w3.org/2000/svg" width="64" height="64" viewBox="0 0 16 16">
<!-- Milla: Ponytail girl with round glasses pixel art -->
<rect x="4" y="0" width="8" height="1" fill="#166534"/>
<rect x="3" y="1" width="10" height="1" fill="#166534"/>
<rect x="12" y="1" width="2" height="1" fill="#166534"/>
<rect x="13" y="2" width="2" height="1" fill="#166534"/>
<rect x="14" y="3" width="1" height="2" fill="#166534"/>
<rect x="2" y="2" width="12" height="1" fill="#166534"/>
<rect x="3" y="3" width="10" height="1" fill="#fcd9b6"/>
<rect x="3" y="4" width="10" height="1" fill="#fcd9b6"/>
<rect x="4" y="4" width="3" height="1" fill="#e2e8f0"/>
<rect x="9" y="4" width="3" height="1" fill="#e2e8f0"/>
<rect x="5" y="4" width="1" height="1" fill="#166534"/>
<rect x="10" y="4" width="1" height="1" fill="#166534"/>
<rect x="4" y="3" width="1" height="1" fill="#94a3b8"/>
<rect x="7" y="3" width="1" height="1" fill="#94a3b8"/>
<rect x="8" y="3" width="1" height="1" fill="#94a3b8"/>
<rect x="11" y="3" width="1" height="1" fill="#94a3b8"/>
<rect x="3" y="5" width="10" height="1" fill="#fcd9b6"/>
<rect x="7" y="5" width="2" height="1" fill="#0f172a"/>
<rect x="3" y="6" width="10" height="1" fill="#fcd9b6"/>
<rect x="6" y="6" width="4" height="1" fill="#fca5a5"/>
<rect x="4" y="7" width="8" height="1" fill="#fcd9b6"/>
<rect x="5" y="8" width="6" height="1" fill="#fcd9b6"/>
<rect x="3" y="9" width="10" height="1" fill="#22c55e"/>
<rect x="3" y="10" width="10" height="2" fill="#166534"/>
<rect x="7" y="9" width="2" height="1" fill="#4ade80"/>
<rect x="4" y="12" width="3" height="2" fill="#fcd9b6"/>
<rect x="9" y="12" width="3" height="2" fill="#fcd9b6"/>
</svg>
